<svg version="1.1" id="Layer_1" xmlns="http://www.w3.org/2000/svg" x="0" y="0" viewBox="0 0 1000 585.2" style="enable-background:new 0 0 1000 585.2" xml:space="preserve"><style>.st6{fill:#fff}.st7{fill:#ff6523}.st8{fill:#fcf8f9}.st9{fill:#323a47}.st11{fill:#4570ad}.st12{opacity:.78;fill:#353e5b}.st16{fill:#c6390c}.st19{fill:#353e5b}.st23{fill:#fdfdfd}.st26{fill:#ffb56f}.st27{fill:#fbfbfb}.st28{opacity:.43}.st29{fill:#f5500e}.st30{fill:#3c3d4f}.st32,.st33{opacity:.28;fill:#e3d4fa}.st33{fill:#fff}</style><path d="M457.7 559.9S79.4 618.3 40.5 485.7 124 263.6 62 165.5 165.1-20.2 268.6 25.8s256.6 51.4 284.1 30.7S908-69 924.3 133.5c16.3 202.5 60.8 275.8 60.8 275.8s92.5 221-527.4 150.6z" style="fill:#e3d4fa"/><path d="M420.3 499.3s-360.8 50-397.9-63.4 60.9-179.7 20.6-274C3.2 68.9 141.3 3.1 239.9 42.4s244.6 43.9 270.9 26.3C537.1 51 849.6-38.7 865.2 134.5s58 235.9 58 235.9 88.2 189.1-502.9 128.9z" style="fill:#cfb5f6"/><path d="M955 482H49c-8.6 0-15.6-7-15.6-15.6V465c0-8.6 7-15.6 15.6-15.6h906c8.6 0 15.6 7 15.6 15.6v1.4c0 8.6-7 15.6-15.6 15.6z" style="opacity:.32;fill:#fff"/><path d="M686.7 406.3H119c-6.8 0-12.4-5.5-12.4-12.4v-164c0-6.8 5.5-12.4 12.4-12.4h567.7c6.8 0 12.4 5.5 12.4 12.4v164c0 6.8-5.5 12.4-12.4 12.4z" style="fill:#ff4d53"/><path style="opacity:.5;fill:#353e5b" d="M137.2 234h529.4v33H137.2z"/><path d="M703 449.6H289.3c-6 0-10.8-4.8-10.8-10.8v-269c0-6 4.8-10.8 10.8-10.8H703c6 0 10.8 4.8 10.8 10.8v269c0 5.9-4.9 10.8-10.8 10.8z" style="fill:#35353d"/><path class="st6" d="M296.3 180.4H696v250.2H296.3z"/><circle class="st7" cx="494.1" cy="315" r="62.3"/><circle class="st8" cx="494.1" cy="315" r="54.4"/><path class="st9" d="M493 260.6h2.1v8.6H493zM527.1 282.7l-1.1-1.2 6.4-5.6 1 1.2zM540.2 314h8.2v2.1h-8.2z"/><path transform="rotate(-54.479 528.567 350.352)" class="st9" d="M527.5 345.3h2.1v10.2h-2.1z"/><path class="st9" d="M493 360.5h2.1v8.4H493z"/><path transform="rotate(-48.822 457.958 349.825)" class="st9" d="M454 348.8h7.9v2.1H454z"/><path class="st9" d="M439.6 313.5h7.3v2.1h-7.3z"/><path transform="rotate(-54.034 457.97 278.07)" class="st9" d="M456.9 274.9h2.1v6.4h-2.1z"/><circle class="st9" cx="494.1" cy="315" r="5.7"/><circle cx="494.1" cy="315" r="4" style="fill:#fffbf8"/><path transform="translate(-.604 1.023)" class="st9" d="M493 275.4h2.1v34H493z"/><path class="st9" d="M499.8 314h23v2.1h-23z"/><circle class="st7" cx="495.2" cy="237.5" r="15.3"/><circle class="st8" cx="495.1" cy="237.5" r="9.8"/><g><path transform="rotate(-57.405 526.773 251.494)" class="st7" d="M523.7 243.6h6.3v15.8h-6.3z"/></g><g><path transform="rotate(-60.849 524.841 256.284)" class="st7" d="M520.8 253.1h8.1v6.3h-8.1z"/></g><g><path transform="rotate(-32.595 463.125 251.28)" class="st7" d="M455.2 248.1H471v6.3h-15.8z"/></g><g><path transform="rotate(-29.151 465.09 256.068)" class="st7" d="M461.9 252h6.3v8.1h-6.3z"/></g><g><path class="st11" d="M844.4 349.8h-130v-130h105.1c13.7 0 24.9 11.1 24.9 24.9v105.1z"/><path class="st12" d="M844.4 282.7h58.2v86.2h-58.2z"/><path class="st11" d="M714.4 279.3s39.8-8.3 43.1 10.4c3.4 18.7 9.9 60.1 9.9 60.1h132.4l-3.7-48.6s-2.5-18.3-19.8-18.5c-17.3-.2-31.9 1.5-31.9 1.5v-6.7h50.8s17.3-6.4 22.4 18.9c5.1 25.4 6.9 72.5 6.9 72.5s-5.1 5.6-9 5.4c-4-.2-167.8 2.9-167.8 2.9l-33.3 2.7V279.3z"/><path style="fill:#5585bf" d="m759.9 305.5 136.7-1.2 3.2 45.5H765.2z"/><path class="st12" d="M714.4 284.8s19.2-3.7 21.6 7.5c2.4 11.2 11.7 84.9 11.7 84.9l-31.3-.3-2-92.1z"/><path style="fill:#4c4c4c" d="M759.9 377.3h15.3l-23.4 98.3-11.8-2.1z"/></g><g><path d="M442.3 430.4c0 32.6-26.3 59-58.9 59.1h-.3c-32.6 0-59.1-26.5-59.1-59.1s26.5-59.1 59.1-59.1c.8 0 1.7 0 2.5.1 31.6 1.3 56.7 27.2 56.7 59z" style="fill:#e9430f"/><circle class="st16" cx="365" cy="418.1" r="8.3"/><circle class="st16" cx="383.1" cy="446.6" r="8.3"/><circle class="st16" cx="398.9" cy="418.1" r="8.3"/><path d="M380.9 487.4c.9.7 1.7 1.4 2.5 2.1h-.3c-32.6 0-59.1-26.5-59.1-59.1s26.5-59.1 59.1-59.1c.8 0 1.7 0 2.5.1.1-.1-87.1 48.5-4.7 116z" style="opacity:.53;fill:#fd7b3d"/><path d="M385.4 487.4c-.9.7-1.7 1.4-2.5 2.1h.3c32.6 0 59.1-26.5 59.1-59.1s-26.5-59.1-59.1-59.1c-.8 0-1.7 0-2.5.1-.1-.1 87.1 48.5 4.7 116z" style="opacity:.53;fill:#c6390c"/></g><g><path class="st19" d="M552.9 475.6H578v13.8h-25.1zM699.1 473.4h25.1v13.8h-25.1z"/><path class="st19" d="M739.9 479.3h-206c-8.5 0-15.5-6.9-15.5-15.5v-58.2c0-8.5 6.9-15.5 15.5-15.5h206c8.5 0 15.5 6.9 15.5 15.5v58.2c0 8.6-7 15.5-15.5 15.5z"/><path d="M757.1 473.4H520.3c-8.5 0-15.5-6.9-15.5-15.5V412c0-8.5 6.9-15.5 15.5-15.5h236.8c8.5 0 15.5 6.9 15.5 15.5v45.9c0 8.6-6.9 15.5-15.5 15.5z" style="fill:#f5f0f4"/><circle class="st6" cx="711.7" cy="435.6" r="43.7"/><circle class="st19" cx="711.7" cy="435.6" r="28.4"/><path class="st19" d="M504.9 409.8h131.3v49.3H504.9z"/><path style="opacity:.19;fill:#fff" d="M504.9 430.6h197.4V451H504.9z"/></g><g><circle cx="104.9" cy="453.3" r="17.9" style="fill:#312c30"/><circle class="st16" cx="104.9" cy="453.3" r="12.7"/><path class="st23" d="M244.5 286.8H66.2c-2.6 0-4.6 2.2-4.3 4.8l11.2 100.3c.7 6.1 5.8 10.7 11.9 10.7h137.5c4.7 0 8.6-3.5 9-8.2l9.3-96.8c5.1-2.2 3.7-10.8 3.7-10.8zm-87.4 19c0-2.6 2.1-4.7 4.7-4.7h11.5c2.6 0 4.7 2.1 4.7 4.7v5c0 2.6-2.1 4.7-4.7 4.7h-11.5c-2.6 0-4.7-2.1-4.7-4.7v-5zm-77.7 5v-5c0-2.6 2.1-4.7 4.7-4.7h11.5c2.6 0 4.7 2.1 4.7 4.7v5c0 2.6-2.1 4.7-4.7 4.7H84.1c-2.6-.1-4.7-2.1-4.7-4.7zm3.2 24.4v-7.7c0-2.6 2.1-4.7 4.7-4.7h10.8c2.6 0 4.7 2.1 4.7 4.7v7.7c0 2.6-2.1 4.7-4.7 4.7H87.3c-2.6 0-4.7-2.1-4.7-4.7zm2.2 24.4v-7.7c0-2.6 2.1-4.7 4.7-4.7h10.2c2.6 0 4.7 2.1 4.7 4.7v7.7c0 2.6-2.1 4.7-4.7 4.7H89.5c-2.6 0-4.7-2.1-4.7-4.7zm20.4 24.6c0 2.6-2.1 4.7-4.7 4.7H91c-2.6 0-4.7-2.1-4.7-4.7v-7.7c0-2.6 2.1-4.7 4.7-4.7h9.5c2.6 0 4.7 2.1 4.7 4.7v7.7zm.4-73.4v-5c0-2.6 2.1-4.7 4.7-4.7h11.5c2.6 0 4.7 2.1 4.7 4.7v5c0 2.6-2.1 4.7-4.7 4.7h-11.5c-2.6-.1-4.7-2.1-4.7-4.7zm2.4 16.7c0-2.6 2.1-4.7 4.7-4.7h10.8c2.6 0 4.7 2.1 4.7 4.7v7.7c0 2.6-2.1 4.7-4.7 4.7h-10.8c-2.6 0-4.7-2.1-4.7-4.7v-7.7zm1.4 24.4c0-2.6 2.1-4.7 4.7-4.7h10.2c2.6 0 4.7 2.1 4.7 4.7v7.7c0 2.6-2.1 4.7-4.7 4.7h-10.2c-2.6 0-4.7-2.1-4.7-4.7v-7.7zm19.5 32.3c0 2.6-2.1 4.7-4.7 4.7h-9.5c-2.6 0-4.7-2.1-4.7-4.7v-7.7c0-2.6 2.1-4.7 4.7-4.7h9.5c2.6 0 4.7 2.1 4.7 4.7v7.7zm2.9-73.4v-5c0-2.6 2.1-4.7 4.7-4.7H148c2.6 0 4.7 2.1 4.7 4.7v5c0 2.6-2.1 4.7-4.7 4.7h-11.5c-2.6-.1-4.7-2.1-4.7-4.7zm20.9 73.4c0 2.6-2.1 4.7-4.7 4.7h-9.5c-2.6 0-4.7-2.1-4.7-4.7v-7.7c0-2.6 2.1-4.7 4.7-4.7h9.5c2.6 0 4.7 2.1 4.7 4.7v7.7zm.8-24.6c0 2.6-2.1 4.7-4.7 4.7h-10.2c-2.6 0-4.7-2.1-4.7-4.7v-7.7c0-2.6 2.1-4.7 4.7-4.7h10.2c2.6 0 4.7 2.1 4.7 4.7v7.7zm.1-24.4c0 2.6-2.1 4.7-4.7 4.7h-10.8c-2.6 0-4.7-2.1-4.7-4.7v-7.7c0-2.6 2.1-4.7 4.7-4.7h10.8c2.6 0 4.7 2.1 4.7 4.7v7.7zm22 49.1c0 2.6-2.1 4.7-4.7 4.7h-9.5c-2.6 0-4.7-2.1-4.7-4.7v-7.7c0-2.6 2.1-4.7 4.7-4.7h9.5c2.6 0 4.7 2.1 4.7 4.7v7.7zm1.6-24.6c0 2.6-2.1 4.7-4.7 4.7h-10.2c-2.6 0-4.7-2.1-4.7-4.7V352c0-2.6 2.1-4.7 4.7-4.7h10.2c2.6 0 4.7 2.1 4.7 4.7v7.7zm.9-24.5c0 2.6-2.1 4.7-4.7 4.7h-10.8c-2.6 0-4.7-2.1-4.7-4.7v-7.7c0-2.6 2.1-4.7 4.7-4.7h10.8c2.6 0 4.7 2.1 4.7 4.7v7.7zm21.3 49.1c0 2.6-2.1 4.7-4.7 4.7h-9.5c-2.6 0-4.7-2.1-4.7-4.7v-7.7c0-2.6 2.1-4.7 4.7-4.7h9.5c2.6 0 4.7 2.1 4.7 4.7v7.7zm2.4-24.6c0 2.6-2.1 4.7-4.7 4.7h-10.2c-2.6 0-4.7-2.1-4.7-4.7V352c0-2.6 2.1-4.7 4.7-4.7h10.2c2.6 0 4.7 2.1 4.7 4.7v7.7zm1.7-24.5c0 2.6-2.1 4.7-4.7 4.7H188c-2.6 0-4.7-2.1-4.7-4.7v-7.7c0-2.6 2.1-4.7 4.7-4.7h10.8c2.6 0 4.7 2.1 4.7 4.7v7.7zm.6-24.4c0 2.6-2.1 4.7-4.7 4.7h-11.5c-2.6 0-4.7-2.1-4.7-4.7v-5c0-2.6 2.1-4.7 4.7-4.7h11.5c2.6 0 4.7 2.1 4.7 4.7v5zm19 73.5c0 2.6-2.1 4.7-4.7 4.7h-9.5c-2.6 0-4.7-2.1-4.7-4.7v-7.7c0-2.6 2.1-4.7 4.7-4.7h9.5c2.6 0 4.7 2.1 4.7 4.7v7.7zm3.2-24.6c0 2.6-2.1 4.7-4.7 4.7h-10.2c-2.6 0-4.7-2.1-4.7-4.7V352c0-2.6 2.1-4.7 4.7-4.7h10.2c2.6 0 4.7 2.1 4.7 4.7v7.7zm2.6-24.5c0 2.6-2.1 4.7-4.7 4.7h-10.8c-2.6 0-4.7-2.1-4.7-4.7v-7.7c0-2.6 2.1-4.7 4.7-4.7h10.8c2.6 0 4.7 2.1 4.7 4.7v7.7zm1.4-24.4c0 2.6-2.1 4.7-4.7 4.7h-11.5c-2.6 0-4.7-2.1-4.7-4.7v-5c0-2.6 2.1-4.7 4.7-4.7h11.5c2.6 0 4.7 2.1 4.7 4.7v5z"/><path class="st23" d="M84.6 435.8v-36.3c0-2.9 2.3-5.2 5.2-5.2s5.2 2.3 5.2 5.2v25.9l192.6-.2c2.9 0 5.2 2.3 5.2 5.2 0 2.9-2.3 5.2-5.2 5.2l-203 .2z"/><path class="st23" d="M105.2 464.3h-.1c-2.1-.1-3.9-1.3-4.7-3.3L91 437.5c-.6-1.6-.5-3.4.5-4.9 1-1.4 2.6-2.3 4.3-2.3H116c1.8 0 3.4.9 4.4 2.4 1 1.5 1.1 3.4.3 5l-10.8 23.5c-.8 1.9-2.7 3.1-4.7 3.1zm-1.8-23.5 2 5.1 2.4-5.1h-4.4z"/><circle cx="104.7" cy="452.9" r="3.3" style="opacity:.43;fill:#ca390a"/><g><path d="M67.9 287.4c-2.6 0-4.7-2.1-4.7-4.7v-19.8h-42c-2.6 0-4.7-2.1-4.7-4.7s2.1-4.7 4.7-4.7h51.4v29.2c0 2.6-2.1 4.7-4.7 4.7z" style="fill:#1a2c36"/></g></g><g><path class="st11" d="M256.9 401.2v2.1c-.2 8.1-1.7 15.8-4.2 23.1-8.5 24.4-29.1 43.1-54.6 48.9-5.5 1.3-11.3 2-17.2 2-2.8 0-5.5-.1-8.2-.4-9.2-1-17.9-3.6-25.8-7.6-3.1-7.6-4.9-15.8-5.4-24.4-.1-1.3-.1-2.7-.1-4 0-6.9.9-13.7 2.7-20 6.9-25.3 26.6-45.4 51.7-52.9 6.9-2.1 14.2-3.2 21.7-3.2h1.3c11.7.2 22.9 3 32.7 8 3.5 8.7 5.4 18.3 5.4 28.4z"/><path class="st23" d="M157.1 427.4c-.5 0-.9-.4-1-.9-.7-4.1 8.1-29.1 42.6-45.5.5-.2 1.1 0 1.4.5.2.5 0 1.1-.5 1.4-32.9 15.6-42.1 39.5-41.4 43.2.1.6-.3 1.1-.8 1.2-.2.1-.2.1-.3.1z"/><path class="st23" d="M164.7 421.8c-.3 0-.5-.1-.7-.3l-8.2-8.2c-.4-.4-.4-1.1 0-1.5.4-.4 1.1-.4 1.5 0l8.2 8.2c.4.4.4 1.1 0 1.5-.3.2-.5.3-.8.3zM168.8 414.9c-.3 0-.5-.1-.7-.3l-8.2-8.2c-.4-.4-.4-1.1 0-1.5.4-.4 1.1-.4 1.5 0l8.2 8.2c.4.4.4 1.1 0 1.5-.3.2-.5.3-.8.3zM174.2 408.8c-.3 0-.5-.1-.7-.3l-8.2-8.2c-.4-.4-.4-1.1 0-1.5.4-.4 1.1-.4 1.5 0l8.2 8.2c.4.4.4 1.1 0 1.5-.3.2-.6.3-.8.3zM178.6 402.8c-.3 0-.5-.1-.7-.3l-8.2-8.2c-.4-.4-.4-1.1 0-1.5.4-.4 1.1-.4 1.5 0l8.2 8.2c.4.4.4 1.1 0 1.5-.2.2-.5.3-.8.3zM185.4 397.6c-.3 0-.5-.1-.7-.3l-8.2-8.2c-.4-.4-.4-1.1 0-1.5.4-.4 1.1-.4 1.5 0l8.2 8.2c.4.4.4 1.1 0 1.5-.3.2-.5.3-.8.3zM192.1 392.5c-.3 0-.5-.1-.7-.3l-8.2-8.2c-.4-.4-.4-1.1 0-1.5.4-.4 1.1-.4 1.5 0l8.2 8.2c.4.4.4 1.1 0 1.5-.3.2-.6.3-.8.3zM199.9 388.2c-.3 0-.5-.1-.7-.3l-8.2-8.2c-.4-.4-.4-1.1 0-1.5.4-.4 1.1-.4 1.5 0l8.2 8.2c.4.4.4 1.1 0 1.5-.2.2-.5.3-.8.3z"/><path class="st6" d="M198.1 475.3c-5.5 1.3-11.3 2-17.2 2-2.8 0-5.5-.1-8.2-.4l-31.2-32c-.1-1.3-.1-2.7-.1-4 0-6.9.9-13.7 2.7-20l54 54.4zM256.9 403.3c-.2 8.1-1.7 15.8-4.2 23.1l-51-52.3-5.9-6.2c6.9-2.1 14.2-3.2 21.7-3.2h1.3l38.1 38.6z"/></g><g><path class="st26" d="M850.1 421.9c-2.2-1.2-76.8-105.7-76.8-105.7s-21.5-29.9-32.3-5c0 0-5.7 7.7 10.8 23.5s92.6 91.9 92.6 91.9l5.7-4.7z"/><path class="st27" d="m850.1 421.9-5.7 4.5 33.6 47.1 8.7-2.2z"/></g><g><path class="st26" d="M784.3 421.8c2.2-1.2 76.8-105.7 76.8-105.7s21.5-29.9 32.3-5c0 0 5.7 7.7-10.8 23.5S790 426.5 790 426.5l-5.7-4.7z"/><path class="st27" d="m784.3 421.8 5.8 4.5-33.6 47.1-8.8-2.2z"/></g><g><circle class="st27" cx="815.5" cy="313.9" r="17.5"/><g class="st28"><path class="st29" d="M803.3 325.7c-.3 0-.5-.1-.7-.3-.4-.4-.4-1.1-.1-1.5.4-.4 9.8-10.8 1.2-22.1-.3-.5-.3-1.1.2-1.5.5-.4 1.1-.3 1.5.2 9.7 12.7-1.2 24.6-1.3 24.8-.2.3-.5.4-.8.4z"/></g><g class="st28"><path class="st29" d="M827.1 326.7c-.2 0-.5-.1-.7-.3-3.5-3.3-5.3-7.1-5.4-11.2-.2-7.4 5.1-13.3 5.4-13.5.4-.4 1-.4 1.4 0 .4.4.4 1 0 1.5 0 .1-5 5.5-4.8 12 .1 3.5 1.7 6.8 4.8 9.7.4.4.4 1 .1 1.5-.2.2-.5.3-.8.3z"/></g></g><g><path class="st27" d="M970.6 452.1s-43.5 13.1-65.9 4.2c0 0-25.8-14.1-37.9-11.8l-1.3 11.6-24.9.5-3.8-20.6-.1-.4s-1.8-24.6 7.6-39c0 0 4.7-20.1 0-29.7 0 0 26.6-23 38.4-7l14-1.9s8 38.7 26.8 51.8c18.8 13 28.1 16.7 28.1 16.7s22.3 4.3 18.5 20v.2l.5 5.4z"/><path class="st27" d="M850.1 456.4s2.1 12-5.7 13.3c-7.9 1.3-16.3 0-16.3 0s-4.6 3.3 0 6 57.5 10.2 93.3 4.7c0 0 43.7-1.1 54.2-14.2 0 0 1.8-13.7-5-14l-4.2 1.1s6.6 10.2-4.3 13.9c-10.8 3.7-19.5 3.3-31.3-7.8h-6.3s1.1 15.7-19.5 14.1c0 0-35.8 2-44.4-9.5l-2.9-7.7-7.6.1z"/><path class="st30" d="M877.3 374.4c-.2 0-.5-.1-.7-.3-.4-.4-.5-1-.1-1.5.5-.5 11.7-13.3 22.8-7.6.5.3.7.9.4 1.4-.3.5-.9.7-1.4.4-9.6-5-20.1 7-20.2 7.1-.2.3-.5.5-.8.5zM881.8 382c-.4 0-.8-.3-1-.7-.2-.5.1-1 .5-1.3l.7-.7c2.4-2.5 8.8-9 19.2-7 .6.1.9.7.8 1.2-.1.6-.6.9-1.2.8-9.3-1.7-14.9 4-17.4 6.5-.7.7-1 1-1.4 1.2h-.2zm-.5-1.9zm.2-.1zM886.7 391.2c-.2 0-.4 0-.5-.1-.5-.3-.7-.9-.4-1.4.1-.1 7.1-12.1 18.2-8.4.5.2.8.8.7 1.3-.2.5-.8.8-1.3.7-9.4-3.2-15.4 7-15.7 7.5-.2.2-.6.4-1 .4zM891.5 397.7c-.3 0-.5-.1-.7-.3-.4-.4-.4-1.1 0-1.5.4-.4 10-10.2 17.8-6.7.5.2.8.9.5 1.4-.2.5-.9.8-1.4.5-6.5-2.9-15.4 6.1-15.5 6.2-.2.3-.5.4-.7.4zM897.1 406.3c-.2 0-.3 0-.5-.1-.5-.3-.7-.9-.5-1.4.2-.4 4.5-8.8 15.6-9.2.6 0 1 .4 1 1s-.4 1.1-1 1.1c-9.8.3-13.6 7.7-13.7 8-.1.4-.5.6-.9.6zM903.7 412.7c-.1 0-.3 0-.4-.1-.5-.2-.7-.9-.5-1.4.2-.4 4.3-8.8 13.8-9 .6 0 1 .5 1 1 0 .6-.4 1.1-1 1.1-8.2.2-11.8 7.5-12 7.8-.2.3-.5.6-.9.6zM911.8 418.4c-.1 0-.2 0-.3-.1-.5-.2-.8-.8-.7-1.3 1.2-3.6 5.5-9.9 13-8.3.6.1.9.7.8 1.2-.1.6-.7.9-1.2.8-7.6-1.6-10.5 6.6-10.6 6.9-.2.5-.6.8-1 .8zM919.1 422.9h-.3c-.6-.2-.9-.7-.7-1.3.1-.3 2-6.8 11.6-8.6.6-.1 1.1.3 1.2.8.1.6-.3 1.1-.8 1.2-8.3 1.6-9.9 7.1-9.9 7.1-.2.5-.6.8-1.1.8zM928.1 427.5c-.6 0-1-.5-1-1 0-.9 2.1-3.6 3.5-5 2.4-2.4 4.9-3.6 7.2-3.6.6 0 1 .5 1 1.1 0 .6-.5 1-1 1-4.1 0-8.1 5.7-8.5 6.7-.3.4-.7.8-1.2.8zM937.7 431.7c-.6 0-1-.4-1-1 0-.2-.2-5.5 2.4-8.2 1-1 2.2-1.6 3.7-1.6.6 0 1 .5 1 1 0 .6-.5 1-1 1.1-.9 0-1.6.3-2.2 1-1.6 1.7-1.9 5.4-1.8 6.7-.1.4-.5.9-1.1 1zM945 433.1h-.1c-.6-.1-1-.6-.9-1.1 0-.3.8-6.8 5.2-7.6.6-.1 1.1.3 1.2.8.1.6-.3 1.1-.8 1.2-2.4.4-3.3 4.3-3.5 5.8-.1.5-.6.9-1.1.9z"/><path class="st30" d="M907 376.9c-1.2 0-2.4-.4-3.8-1.1-7.3-3.9-5.6-13.2-5.4-14.4 0-1.2.2-7.4 3.7-9.3 1.9-1 4.3-.6 7.2 1.3 2.4 1.6 3.4 3.3 3.1 5-.4 2.4-3.5 4.3-6.6 5.5 2.5.3 5 1 6.5 2.6 1 1 1.3 2.3 1.1 3.8 0 .1-.5 4.5-3.5 6.1-.7.4-1.5.5-2.3.5zm-7.5-11c.1 2.8 1.1 6.2 4.6 8.1 1.7.9 3.1 1.1 4.2.5 1.7-.9 2.3-3.6 2.4-4.5.1-.9-.1-1.5-.6-2.1-1.9-2.1-8-2.2-10.6-2zm4.2-12.2c-.5 0-.9.1-1.2.3-2.2 1.2-2.6 5.9-2.6 7.5v.2c0 .1-.2.8-.3 1.9 4.2-1.1 9.8-3.4 10.2-5.6.2-1.1-1.1-2.2-2.2-2.9-1.6-.9-2.8-1.4-3.9-1.4z"/><path d="M970.6 452.1s-43.5 13.1-65.9 4.2c0 0-25.8-14.1-37.9-11.8l-1.3 11.6-24.9.5-3.8-20.6c11.5.4 36.7 1.3 44.6 4.8 10.2 4.6 32.7 14.5 45.6 12.9 0 0 30.3-2.8 43.2-7.1l.4 5.5z" style="fill:#3f3f3f"/></g><ellipse transform="rotate(-67.438 765.725 83.776)" class="st32" cx="765.8" cy="83.8" rx="26.9" ry="71.5"/><path class="st32" d="M625.6 116.9c-6.6 2.3-13.6.1-17.9-4.9-9.2 3.5-22.9 5.8-38.1 5.8-27.7 0-50.1-7.4-50.1-16.5 0-5 6.8-9.5 17.5-12.5.3-6.5 4.5-12.4 11.1-14.7 5.8-2 11.9-.6 16.2 3.2 1.9-3.6 5.1-6.6 9.2-8 8.4-2.9 17.5 1.4 20.7 9.5 1.3-1 2.8-1.8 4.4-2.3 8-2.8 16.6 1 20.2 8.4 7.3-.7 14.5 3.7 17 11 2.9 8.6-1.7 18-10.2 21zM356.2 107.7c-5.3 1.8-10.9.1-14.3-3.9-7.4 2.8-18.3 4.6-30.5 4.6-22.2 0-40.1-5.9-40.1-13.2 0-4 5.4-7.6 14-10 .3-5.2 3.6-10 8.8-11.8 4.6-1.6 9.6-.5 13 2.5 1.5-2.9 4.1-5.3 7.4-6.4 6.7-2.3 14 1.1 16.6 7.6 1-.8 2.2-1.4 3.5-1.9 6.4-2.2 13.3.8 16.2 6.7 5.9-.5 11.6 3 13.6 8.8 2.3 7.1-1.3 14.6-8.2 17z"/><circle class="st33" cx="220.7" cy="104.4" r="7.2"/><circle class="st33" cx="673.8" cy="117.8" r="7.2"/><circle class="st33" cx="431.8" cy="133.7" r="7.2"/><circle class="st33" cx="86" cy="196.3" r="7.2"/><circle class="st33" cx="850.1" cy="196.3" r="7.2"/><circle class="st33" cx="92" cy="93.1" r="25.6"/></svg>